<svg width="1083" height="52" viewBox="0 0 1083 52" fill="none" xmlns="http://www.w3.org/2000/svg">
<g clip-path="url(#clip0_4886_140)">
<path d="M397.574 33.2684C397.986 34.3668 398.555 35.3059 399.282 36.0858C400.01 36.8659 400.872 37.4627 401.868 37.8766C402.864 38.2905 403.947 38.4974 405.117 38.4974C406.256 38.4974 407.323 38.2825 408.32 37.8526C409.316 37.4228 410.186 36.818 410.929 36.0381C411.672 35.2581 412.249 34.327 412.66 33.2446C413.071 32.1622 413.277 30.9525 413.277 29.6154V8.98608H418.258V42.4131H413.324V39.3091C412.218 40.4869 410.913 41.3943 409.411 42.0311C407.908 42.6677 406.288 42.9861 404.548 42.9861C402.777 42.9861 401.125 42.6756 399.591 42.0549C398.057 41.4341 396.728 40.5508 395.606 39.4046C394.483 38.2585 393.597 36.8818 392.949 35.274C392.301 33.6664 391.977 31.8757 391.977 29.9018V8.98608H396.958V29.6154C396.958 30.9525 397.163 32.1701 397.574 33.2684Z" fill="#154444"/>
<path d="M426.844 8.98608V21.163C427.951 20.0488 429.232 19.1655 430.687 18.5128C432.142 17.8601 433.723 17.5338 435.431 17.5338C437.202 17.5338 438.862 17.868 440.412 18.5366C441.961 19.2051 443.306 20.1124 444.444 21.2586C445.583 22.4047 446.484 23.7576 447.148 25.3175C447.812 26.8775 448.144 28.5329 448.144 30.2839C448.144 32.0347 447.812 33.6822 447.148 35.2262C446.484 36.7702 445.583 38.1153 444.444 39.2612C443.306 40.4074 441.961 41.3147 440.412 41.9832C438.862 42.6518 437.202 42.986 435.431 42.986C433.723 42.986 432.134 42.6597 430.663 42.007C429.192 41.3544 427.904 40.471 426.797 39.3568V42.413H422.053V8.98608H426.844ZM427.39 33.5788C427.817 34.5976 428.41 35.489 429.169 36.253C429.928 37.0171 430.813 37.622 431.825 38.0677C432.837 38.5134 433.928 38.7362 435.099 38.7362C436.237 38.7362 437.312 38.5134 438.324 38.0677C439.337 37.622 440.214 37.0172 440.957 36.253C441.701 35.4891 442.294 34.5976 442.736 33.5788C443.179 32.5601 443.401 31.4618 443.401 30.2839C443.401 29.1059 443.179 27.9997 442.736 26.965C442.294 25.9303 441.701 25.031 440.957 24.267C440.214 23.503 439.337 22.9061 438.324 22.4763C437.312 22.0466 436.237 21.8316 435.099 21.8316C433.96 21.8316 432.885 22.0465 431.873 22.4763C430.861 22.9062 429.975 23.503 429.216 24.267C428.457 25.031 427.856 25.9303 427.413 26.965C426.971 27.9997 426.749 29.1059 426.749 30.2839C426.749 31.4618 426.963 32.5601 427.39 33.5788Z" fill="#154444"/>
<path d="M450.849 25.3652C451.481 23.8371 452.351 22.4922 453.458 21.3302C454.565 20.1682 455.878 19.2529 457.396 18.5844C458.914 17.9159 460.558 17.5817 462.329 17.5817C464.069 17.5817 465.682 17.9 467.168 18.5366C468.655 19.1734 469.936 20.0568 471.011 21.187C472.086 22.3171 472.924 23.6542 473.525 25.1982C474.126 26.7422 474.426 28.4216 474.426 30.2362V31.8121H454.739C454.897 32.799 455.214 33.7142 455.688 34.5577C456.162 35.4013 456.755 36.1336 457.467 36.7544C458.178 37.3752 458.985 37.8608 459.886 38.2108C460.788 38.561 461.744 38.7362 462.756 38.7362C465.634 38.7362 467.959 37.5423 469.73 35.1546L473.193 37.7332C471.991 39.3569 470.505 40.6303 468.734 41.5535C466.963 42.4767 464.97 42.9383 462.757 42.9383C460.954 42.9383 459.27 42.6198 457.704 41.9832C456.139 41.3466 454.779 40.4551 453.624 39.309C452.47 38.1629 451.561 36.8179 450.897 35.2739C450.233 33.73 449.9 32.0506 449.9 30.236C449.9 28.517 450.217 26.8933 450.849 25.3652ZM457.514 23.4789C456.17 24.6091 455.277 26.1133 454.834 27.9916H469.588C469.177 26.1133 468.299 24.6091 466.955 23.4789C465.611 22.3489 464.037 21.7838 462.235 21.7838C460.432 21.7838 458.858 22.3489 457.514 23.4789Z" fill="#154444"/>
<path d="M483.392 24.0281C482.38 25.1424 481.874 26.6545 481.874 28.5647V42.4131H477.082V18.0591H481.826V21.0676C482.427 20.0807 483.21 19.3007 484.174 18.7277C485.139 18.1545 486.285 17.868 487.614 17.868H489.274V22.3568H487.282C485.7 22.3569 484.404 22.9139 483.392 24.0281Z" fill="#154444"/>
</g>
<g clip-path="url(#clip1_4886_140)">
<path d="M232.856 16.4552C232.856 17.8406 231.708 18.974 230.305 18.974C228.902 18.974 227.754 17.8406 227.754 16.4552C227.754 15.0699 228.838 13.9364 230.305 13.9364C231.772 13.9679 232.856 15.1014 232.856 16.4552ZM222.397 21.4928C222.397 21.7132 222.397 22.1225 222.397 22.1225C222.397 22.1225 221.185 20.5797 218.602 20.5797C214.361 20.5797 211.013 23.7912 211.013 28.1991C211.013 32.607 214.298 35.8185 218.602 35.8185C221.217 35.8185 222.397 34.2442 222.397 34.2442V34.9054C222.397 35.2202 222.62 35.4406 222.939 35.4406H226.096V20.9576C226.096 20.9576 223.194 20.9576 222.939 20.9576C222.62 20.9576 222.397 21.2409 222.397 21.4928ZM222.397 30.7809C221.823 31.631 220.643 32.3551 219.24 32.3551C216.753 32.3551 214.84 30.8123 214.84 28.1991C214.84 25.5858 216.753 24.0431 219.24 24.0431C220.611 24.0431 221.855 24.7987 222.397 25.6173V30.7809ZM228.456 20.9576H232.218V35.4406H228.456V20.9576ZM284.419 20.5797C281.836 20.5797 280.624 22.1225 280.624 22.1225V13.9994H276.861V35.4721C276.861 35.4721 279.763 35.4721 280.018 35.4721C280.337 35.4721 280.56 35.1888 280.56 34.9369V34.2757C280.56 34.2757 281.772 35.8499 284.355 35.8499C288.596 35.8499 291.944 32.607 291.944 28.2306C291.976 23.8227 288.628 20.5797 284.419 20.5797ZM283.813 32.3236C282.378 32.3236 281.23 31.5995 280.656 30.7494V25.5859C281.23 24.8302 282.505 24.0116 283.813 24.0116C286.3 24.0116 288.213 25.5544 288.213 28.1676C288.213 30.7809 286.3 32.3236 283.813 32.3236ZM274.948 26.8452V35.4721H271.185V27.286C271.185 24.8932 270.42 23.9172 268.284 23.9172C267.136 23.9172 265.988 24.4839 265.254 25.334V35.4406H261.491V20.9576H264.457C264.776 20.9576 264.999 21.2409 264.999 21.4928V22.1225C266.083 20.9891 267.55 20.5797 268.985 20.5797C270.611 20.5797 271.982 21.052 273.099 21.9651C274.438 23.0356 274.948 24.4209 274.948 26.8452ZM252.403 20.5797C249.82 20.5797 248.609 22.1225 248.609 22.1225V13.9994H244.846V35.4721C244.846 35.4721 247.748 35.4721 248.003 35.4721C248.322 35.4721 248.545 35.1888 248.545 34.9369V34.2757C248.545 34.2757 249.757 35.8499 252.34 35.8499C256.581 35.8499 259.929 32.607 259.929 28.2306C259.993 23.8227 256.676 20.5797 252.403 20.5797ZM251.798 32.3236C250.363 32.3236 249.215 31.5995 248.641 30.7494V25.5859C249.215 24.8302 250.49 24.0116 251.798 24.0116C254.285 24.0116 256.198 25.5544 256.198 28.1676C256.198 30.7809 254.285 32.3236 251.798 32.3236ZM241.625 20.5797C242.773 20.5797 243.347 20.7687 243.347 20.7687V24.2005C243.347 24.2005 240.222 23.1615 238.277 25.3655V35.5036H234.514V20.9576C234.514 20.9576 237.416 20.9576 237.671 20.9576C237.99 20.9576 238.213 21.2409 238.213 21.4928V22.1225C238.947 21.3039 240.477 20.5797 241.625 20.5797ZM202.722 34.1498C202.531 33.6775 202.34 33.1737 202.148 32.7644C201.829 32.0717 201.511 31.4106 201.255 30.8123L201.224 30.7809C198.545 24.9876 195.643 19.1314 192.582 13.3697L192.454 13.1493C192.136 12.5826 191.817 11.9529 191.53 11.3232C191.147 10.6305 190.764 9.90635 190.127 9.21369C188.883 7.67092 187.097 6.82083 185.184 6.82083C183.239 6.82083 181.485 7.67093 180.178 9.11923C179.604 9.8119 179.157 10.5361 178.775 11.2287C178.456 11.8584 178.137 12.4566 177.85 13.0548L177.722 13.2752C174.725 19.0685 171.791 24.9247 169.081 30.6864L169.049 30.7494C168.762 31.3791 168.475 32.0088 168.156 32.7014C167.965 33.1107 167.773 33.583 167.582 34.0868C167.072 35.5036 166.912 36.8575 167.104 38.2428C167.518 41.1394 169.495 43.5637 172.174 44.6342C173.194 45.0435 174.247 45.2639 175.331 45.2639C175.65 45.2639 176.032 45.2324 176.351 45.201C177.627 45.0435 178.966 44.6342 180.241 43.8786C181.836 42.997 183.366 41.7061 185.088 39.88C186.81 41.7376 188.373 42.997 189.935 43.8786C191.211 44.6027 192.55 45.0435 193.826 45.201C194.144 45.2324 194.527 45.2639 194.846 45.2639C195.93 45.2639 197.046 45.075 198.003 44.6342C200.745 43.5637 202.659 41.0764 203.073 38.2428C203.392 36.9204 203.232 35.5666 202.722 34.1498ZM185.12 36.1333C183.016 33.5201 181.644 31.0327 181.166 28.9547C180.975 28.0732 180.943 27.286 181.039 26.5934C181.102 25.9637 181.357 25.4284 181.676 24.9876C182.41 23.9486 183.653 23.2875 185.12 23.2875C186.587 23.2875 187.863 23.9171 188.564 24.9876C188.883 25.4599 189.106 25.9952 189.202 26.5934C189.329 27.286 189.266 28.1046 189.074 28.9547C188.596 31.0327 187.225 33.4886 185.12 36.1333ZM200.681 37.9594C200.394 39.9745 199.055 41.7061 197.142 42.4618C196.217 42.8396 195.197 42.9655 194.176 42.8396C193.188 42.7136 192.231 42.4303 191.211 41.8321C189.808 41.0764 188.405 39.88 186.747 38.0854C189.329 34.9684 190.892 32.1032 191.466 29.553C191.753 28.3565 191.785 27.286 191.657 26.2785C191.498 25.3025 191.147 24.4209 190.605 23.6653C189.393 21.9336 187.352 20.9261 185.088 20.9261C182.824 20.9261 180.784 21.9651 179.572 23.6653C179.03 24.4209 178.679 25.334 178.519 26.2785C178.36 27.286 178.392 28.388 178.711 29.553C179.285 32.1032 180.911 34.9998 183.43 38.1169C181.836 39.88 180.401 41.0764 178.966 41.8636C177.945 42.4303 176.989 42.7451 176 42.8711C174.948 42.997 173.928 42.8396 173.035 42.4933C171.122 41.7376 169.75 39.9745 169.495 37.9909C169.368 37.0149 169.463 36.0703 169.846 34.9998C169.974 34.622 170.165 34.2442 170.356 33.7719C170.643 33.1422 170.93 32.5125 171.249 31.8514L171.281 31.7884C173.96 26.0581 176.861 20.1704 179.859 14.4717L179.986 14.2513C180.305 13.6845 180.624 13.0548 180.911 12.4881C181.23 11.8584 181.581 11.2917 181.995 10.7879C182.824 9.87487 183.909 9.37111 185.12 9.37111C186.332 9.37111 187.416 9.87487 188.245 10.7879C188.66 11.2917 189.011 11.8584 189.329 12.4881C189.648 13.0548 189.967 13.6845 190.254 14.2513L190.382 14.4717C193.347 20.2019 196.249 26.0896 198.928 31.8199V31.8514C199.247 32.4811 199.502 33.1737 199.82 33.7719C200.012 34.2442 200.203 34.622 200.331 34.9998C200.713 35.9759 200.841 36.9519 200.681 37.9594Z" fill="#244D4D"/>
</g>
<path d="M12.1868 51.8571V48.4077C12.1868 47.0854 11.3819 46.223 10.0021 46.223C9.31221 46.223 8.56483 46.453 8.04741 47.2003C7.64497 46.5679 7.07005 46.223 6.20769 46.223C5.63278 46.223 5.05787 46.3955 4.59794 47.0279V46.338H3.39062V51.8571H4.59794V48.8101C4.59794 47.8327 5.11536 47.3728 5.92023 47.3728C6.72511 47.3728 7.12755 47.8902 7.12755 48.8101V51.8571H8.33487V48.8101C8.33487 47.8327 8.90977 47.3728 9.65715 47.3728C10.462 47.3728 10.8645 47.8902 10.8645 48.8101V51.8571H12.1868ZM30.0665 46.338H28.1118V44.6707H26.9045V46.338H25.8122V47.4303H26.9045V49.9599C26.9045 51.2247 27.4219 51.9721 28.8017 51.9721C29.3191 51.9721 29.894 51.7996 30.2965 51.5697L29.9515 50.5348C29.6066 50.7648 29.2041 50.8223 28.9167 50.8223C28.3418 50.8223 28.1118 50.4773 28.1118 49.9024V47.4303H30.0665V46.338ZM40.2999 46.223C39.61 46.223 39.1501 46.5679 38.8626 47.0279V46.338H37.6553V51.8571H38.8626V48.7526C38.8626 47.8328 39.2651 47.3153 40.0125 47.3153C40.2424 47.3153 40.5299 47.3728 40.7599 47.4303L41.1048 46.2805C40.8748 46.223 40.5299 46.223 40.2999 46.223ZM24.8348 46.7979C24.2599 46.3955 23.455 46.223 22.5927 46.223C21.2129 46.223 20.293 46.9129 20.293 48.0052C20.293 48.9251 20.9829 49.4425 22.1902 49.615L22.7651 49.6725C23.3975 49.7874 23.7425 49.9599 23.7425 50.2474C23.7425 50.6498 23.2825 50.9373 22.4777 50.9373C21.6728 50.9373 21.0404 50.6498 20.638 50.3624L20.0631 51.2822C20.6955 51.7421 21.5578 51.9721 22.4202 51.9721C24.0299 51.9721 24.9498 51.2247 24.9498 50.1899C24.9498 49.2125 24.2024 48.6951 23.0526 48.5226L22.4777 48.4652C21.9602 48.4077 21.5578 48.2927 21.5578 47.9477C21.5578 47.5453 21.9603 47.3153 22.5927 47.3153C23.2826 47.3153 23.9724 47.6028 24.3174 47.7753L24.8348 46.7979ZM56.9149 46.223C56.225 46.223 55.765 46.5679 55.4776 47.0279V46.338H54.2703V51.8571H55.4776V48.7526C55.4776 47.8328 55.88 47.3153 56.6274 47.3153C56.8574 47.3153 57.1448 47.3728 57.3748 47.4303L57.7197 46.2805C57.4898 46.223 57.1448 46.223 56.9149 46.223ZM41.5072 49.0975C41.5072 50.7648 42.6571 51.9721 44.4393 51.9721C45.2442 51.9721 45.8191 51.7996 46.394 51.3397L45.8191 50.3624C45.3591 50.7073 44.8992 50.8798 44.3818 50.8798C43.4044 50.8798 42.7146 50.1899 42.7146 49.0975C42.7146 48.0627 43.4044 47.3728 44.3818 47.3153C44.8992 47.3153 45.3591 47.4878 45.8191 47.8327L46.394 46.8554C45.8191 46.3955 45.2442 46.223 44.4393 46.223C42.6571 46.223 41.5072 47.4303 41.5072 49.0975ZM52.6605 49.0975V46.338H51.4532V47.0279C51.0508 46.5105 50.4759 46.223 49.7285 46.223C48.1762 46.223 46.9689 47.4303 46.9689 49.0975C46.9689 50.7648 48.1762 51.9721 49.7285 51.9721C50.5333 51.9721 51.1083 51.6846 51.4532 51.1672V51.8571H52.6605V49.0975ZM48.2337 49.0975C48.2337 48.1202 48.8661 47.3153 49.9009 47.3153C50.8783 47.3153 51.5682 48.0627 51.5682 49.0975C51.5682 50.0749 50.8783 50.8798 49.9009 50.8798C48.8661 50.8223 48.2337 50.0749 48.2337 49.0975ZM33.8034 46.223C32.1937 46.223 31.0439 47.3728 31.0439 49.0975C31.0439 50.8223 32.1937 51.9721 33.8609 51.9721C34.6658 51.9721 35.4707 51.7421 36.1031 51.2247L35.5282 50.3624C35.0682 50.7073 34.4933 50.9373 33.9184 50.9373C33.171 50.9373 32.4236 50.5923 32.2512 49.615H36.333C36.333 49.4425 36.333 49.3275 36.333 49.155C36.3905 47.3728 35.3557 46.223 33.8034 46.223ZM33.8034 47.2578C34.5508 47.2578 35.0682 47.7178 35.1832 48.5801H32.3087C32.4236 47.8327 32.9411 47.2578 33.8034 47.2578ZM63.7563 49.0975V44.1533H62.549V47.0279C62.1465 46.5105 61.5716 46.223 60.8243 46.223C59.272 46.223 58.0647 47.4303 58.0647 49.0975C58.0647 50.7648 59.272 51.9721 60.8243 51.9721C61.6291 51.9721 62.204 51.6846 62.549 51.1672V51.8571H63.7563V49.0975ZM59.3295 49.0975C59.3295 48.1202 59.9619 47.3153 60.9967 47.3153C61.9741 47.3153 62.664 48.0627 62.664 49.0975C62.664 50.0749 61.9741 50.8798 60.9967 50.8798C59.9619 50.8223 59.3295 50.0749 59.3295 49.0975ZM18.9707 49.0975V46.338H17.7634V47.0279C17.361 46.5105 16.7861 46.223 16.0387 46.223C14.4864 46.223 13.2791 47.4303 13.2791 49.0975C13.2791 50.7648 14.4864 51.9721 16.0387 51.9721C16.8435 51.9721 17.4185 51.6846 17.7634 51.1672V51.8571H18.9707V49.0975ZM14.4864 49.0975C14.4864 48.1202 15.1188 47.3153 16.1536 47.3153C17.131 47.3153 17.8209 48.0627 17.8209 49.0975C17.8209 50.0749 17.131 50.8798 16.1536 50.8798C15.1188 50.8223 14.4864 50.0749 14.4864 49.0975Z" fill="black"/>
<path d="M42.5413 4.42676H24.4316V36.9667H42.5413V4.42676Z" fill="#FF5F00"/>
<path d="M25.5836 20.6968C25.5836 14.0853 28.6881 8.22124 33.4598 4.42682C29.9529 1.66725 25.5261 0 20.6968 0C9.25607 0 0 9.25607 0 20.6968C0 32.1375 9.25607 41.3936 20.6968 41.3936C25.5261 41.3936 29.9529 39.7264 33.4598 36.9668C28.6881 33.2299 25.5836 27.3083 25.5836 20.6968Z" fill="#EB001B"/>
<path d="M66.9774 20.6968C66.9774 32.1375 57.7213 41.3936 46.2806 41.3936C41.4514 41.3936 37.0245 39.7264 33.5176 36.9668C38.3468 33.1724 41.3939 27.3083 41.3939 20.6968C41.3939 14.0853 38.2893 8.22124 33.5176 4.42682C37.0245 1.66725 41.4514 0 46.2806 0C57.7213 0 66.9774 9.31356 66.9774 20.6968Z" fill="#F79E1B"/>
<g clip-path="url(#clip2_4886_140)">
<path d="M828.598 39.7461L833.149 14.1461H840.26L835.851 39.7461H828.598Z" fill="#3C58BF"/>
<path d="M828.598 39.7461L834.429 14.1461H840.26L835.851 39.7461H828.598Z" fill="#293688"/>
<path d="M861.592 14.4305C860.17 13.8616 857.894 13.2928 855.05 13.2928C847.939 13.2928 842.819 16.8483 842.819 21.9683C842.819 25.8083 846.374 27.7994 849.219 29.0794C852.063 30.3594 852.916 31.2128 852.916 32.3505C852.916 34.0572 850.641 34.9105 848.65 34.9105C845.805 34.9105 844.241 34.4839 841.823 33.4883L840.828 33.0616L839.832 38.8928C841.539 39.6039 844.668 40.315 847.939 40.315C855.476 40.315 860.454 36.7594 860.454 31.355C860.454 28.3683 858.605 26.0928 854.339 24.2439C851.779 22.9639 850.214 22.2528 850.214 20.9728C850.214 19.835 851.494 18.6972 854.339 18.6972C856.756 18.6972 858.463 19.1239 859.743 19.6928L860.454 19.9772L861.592 14.4305Z" fill="#3C58BF"/>
<path d="M861.592 14.4305C860.17 13.8616 857.894 13.2928 855.05 13.2928C847.939 13.2928 844.099 16.8483 844.099 21.9683C844.099 25.8083 846.374 27.7994 849.219 29.0794C852.063 30.3594 852.916 31.2128 852.916 32.3505C852.916 34.0572 850.641 34.9105 848.65 34.9105C845.805 34.9105 844.241 34.4839 841.823 33.4883L840.828 33.0616L839.832 38.8928C841.539 39.6039 844.668 40.315 847.939 40.315C855.476 40.315 860.454 36.7594 860.454 31.355C860.454 28.3683 858.605 26.0928 854.339 24.2439C851.779 22.9639 850.214 22.2528 850.214 20.9728C850.214 19.835 851.494 18.6972 854.339 18.6972C856.756 18.6972 858.463 19.1239 859.743 19.6928L860.454 19.9772L861.592 14.4305Z" fill="#293688"/>
<path d="M873.823 14.1461C872.117 14.1461 870.837 14.2883 870.126 15.995L859.459 39.7461H867.139L868.561 35.4794H877.663L878.517 39.7461H885.343L879.37 14.1461H873.823ZM870.552 31.2128C870.979 29.9328 873.397 23.675 873.397 23.675C873.397 23.675 873.966 22.1105 874.392 21.115L874.819 23.5328C874.819 23.5328 876.241 29.9328 876.526 31.355H870.552V31.2128Z" fill="#3C58BF"/>
<path d="M875.53 14.1461C873.823 14.1461 872.543 14.2883 871.832 15.995L859.459 39.7461H867.139L868.561 35.4794H877.663L878.517 39.7461H885.343L879.37 14.1461H875.53ZM870.552 31.2128C871.121 29.7905 873.397 23.675 873.397 23.675C873.397 23.675 873.966 22.1105 874.392 21.115L874.819 23.5328C874.819 23.5328 876.241 29.9328 876.526 31.355H870.552V31.2128Z" fill="#293688"/>
<path d="M815.512 32.0661L814.801 28.3684C813.521 24.1017 809.397 19.4084 804.846 17.1328L811.246 39.8884H818.926L830.446 14.2884H822.766L815.512 32.0661Z" fill="#3C58BF"/>
<path d="M815.512 32.0661L814.801 28.3684C813.521 24.1017 809.397 19.4084 804.846 17.1328L811.246 39.8884H818.926L830.446 14.2884H824.188L815.512 32.0661Z" fill="#293688"/>
<path d="M795.744 14.1461L797.024 14.4305C806.126 16.5639 812.384 21.9683 814.802 28.3683L812.242 16.2794C811.815 14.5728 810.535 14.1461 808.971 14.1461H795.744Z" fill="#FFBC00"/>
<path d="M795.744 14.1461C804.846 16.2794 812.384 21.8261 814.802 28.2261L812.384 18.1283C811.957 16.4216 810.535 15.4261 808.971 15.4261L795.744 14.1461Z" fill="#F7981D"/>
<path d="M795.744 14.1461C804.846 16.2794 812.384 21.8261 814.802 28.2261L813.095 22.6794C812.669 20.9728 812.1 19.2661 810.109 18.555L795.744 14.1461Z" fill="#ED7C00"/>
<path d="M822.624 31.2127L817.788 26.3772L815.513 31.7816L814.944 28.2261C813.664 23.9594 809.539 19.2661 804.988 16.9905L811.388 39.7461H819.068L822.624 31.2127Z" fill="#051244"/>
<path d="M835.849 39.7462L829.733 33.4884L828.596 39.7462H835.849Z" fill="#051244"/>
<path d="M852.205 30.9283C852.774 31.4972 853.059 31.9239 852.916 32.4928C852.916 34.1994 850.641 35.0528 848.65 35.0528C845.805 35.0528 844.241 34.6261 841.823 33.6305L840.828 33.2039L839.832 39.035C841.539 39.7461 844.668 40.4572 847.939 40.4572C852.49 40.4572 856.188 39.1772 858.321 36.9016L852.205 30.9283Z" fill="#051244"/>
<path d="M860.455 39.7459H867.14L868.562 35.4793H877.664L878.517 39.7459H885.344L882.926 29.3637L874.393 21.1148L874.82 23.3904C874.82 23.3904 876.242 29.7904 876.526 31.2126H870.553C871.122 29.7904 873.397 23.6748 873.397 23.6748C873.397 23.6748 873.966 22.1104 874.393 21.1148" fill="#051244"/>
</g>
<path d="M602.052 7.29419H593.771C593.204 7.29419 592.722 7.83686 592.633 8.57429L589.284 36.5572C589.217 37.1091 589.542 37.6071 589.967 37.6071H593.921C594.487 37.6071 594.969 37.0646 595.058 36.3258L595.961 28.7785C596.048 28.0395 596.531 27.497 597.097 27.497H599.718C605.173 27.497 608.322 24.0184 609.144 17.1252C609.514 14.1094 609.16 11.7399 608.088 10.0804C606.911 8.25801 604.823 7.29419 602.052 7.29419ZM603.007 17.5146C602.554 21.4303 600.284 21.4303 598.088 21.4303H596.839L597.716 14.1175C597.768 13.6754 598.058 13.3499 598.397 13.3499H598.97C600.465 13.3499 601.876 13.3499 602.605 14.4731C603.04 15.1434 603.173 16.139 603.007 17.5146Z" fill="#283B82"/>
<path d="M626.805 17.3884H622.84C622.502 17.3884 622.21 17.7139 622.158 18.156L621.983 19.6176L621.705 19.0877C620.847 17.4458 618.932 16.897 617.021 16.897C612.639 16.897 608.896 21.2706 608.167 27.4059C607.788 30.4664 608.327 33.3929 609.645 35.4336C610.853 37.31 612.582 38.0919 614.64 38.0919C618.171 38.0919 620.129 35.1003 620.129 35.1003L619.952 36.5523C619.885 37.1076 620.21 37.6054 620.632 37.6054H624.204C624.772 37.6054 625.252 37.0628 625.341 36.3242L627.485 18.4383C627.553 17.8878 627.229 17.3884 626.805 17.3884ZM621.278 27.5592C620.895 30.5445 619.097 32.5489 616.804 32.5489C615.652 32.5489 614.732 32.0621 614.141 31.1398C613.555 30.2238 613.332 28.9202 613.518 27.4681C613.876 24.5082 615.704 22.4387 617.962 22.4387C619.089 22.4387 620.004 22.9317 620.607 23.8619C621.211 24.8017 621.451 26.1134 621.278 27.5592Z" fill="#283B82"/>
<path d="M647.926 17.3884H643.941C643.56 17.3884 643.203 17.6374 642.988 18.0539L637.491 28.7225L635.162 18.4703C635.015 17.8288 634.566 17.3884 634.057 17.3884H630.141C629.665 17.3884 629.335 18.0011 629.486 18.5915L633.876 35.5661L629.749 43.2429C629.424 43.8475 629.751 44.6792 630.312 44.6792H634.292C634.67 44.6792 635.024 44.4365 635.238 44.028L648.492 18.8166C648.81 18.2133 648.484 17.3884 647.926 17.3884Z" fill="#283B82"/>
<path d="M661.12 7.29419H652.838C652.272 7.29419 651.79 7.83686 651.702 8.57429L648.352 36.5572C648.286 37.1091 648.61 37.6071 649.033 37.6071H653.283C653.678 37.6071 654.016 37.2275 654.078 36.7104L655.028 28.7785C655.115 28.0395 655.598 27.497 656.164 27.497H658.784C664.24 27.497 667.388 24.0184 668.211 17.1252C668.583 14.1094 668.226 11.7399 667.154 10.0804C665.978 8.25801 663.892 7.29419 661.12 7.29419ZM662.076 17.5146C661.624 21.4303 659.354 21.4303 657.157 21.4303H655.908L656.786 14.1175C656.838 13.6754 657.126 13.3499 657.467 13.3499H658.04C659.534 13.3499 660.946 13.3499 661.675 14.4731C662.109 15.1434 662.241 16.139 662.076 17.5146Z" fill="#469BDB"/>
<path d="M685.873 17.3884H681.909C681.569 17.3884 681.28 17.7139 681.229 18.156L681.053 19.6176L680.775 19.0877C679.916 17.4458 678.003 16.897 676.092 16.897C671.71 16.897 667.968 21.2706 667.239 27.4059C666.862 30.4664 667.398 33.3929 668.716 35.4336C669.926 37.31 671.653 38.0919 673.71 38.0919C677.241 38.0919 679.199 35.1003 679.199 35.1003L679.022 36.5523C678.956 37.1076 679.28 37.6054 679.706 37.6054H683.276C683.842 37.6054 684.324 37.0628 684.412 36.3242L686.557 18.4383C686.622 17.8878 686.298 17.3884 685.873 17.3884ZM680.345 27.5592C679.965 30.5445 678.164 32.5489 675.871 32.5489C674.721 32.5489 673.799 32.0621 673.208 31.1398C672.622 30.2238 672.401 28.9202 672.586 27.4681C672.945 24.5082 674.771 22.4387 677.03 22.4387C678.156 22.4387 679.071 22.9317 679.674 23.8619C680.281 24.8017 680.52 26.1134 680.345 27.5592Z" fill="#469BDB"/>
<path d="M690.548 8.0619L687.149 36.5572C687.083 37.1091 687.407 37.6071 687.83 37.6071H691.247C691.815 37.6071 692.297 37.0646 692.384 36.3258L695.736 8.34455C695.802 7.79223 695.478 7.29285 695.055 7.29285H691.229C690.891 7.29418 690.6 7.62011 690.548 8.0619Z" fill="#469BDB"/>
<g clip-path="url(#clip3_4886_140)">
<path d="M992.137 21.5457C992.137 20.4987 992.996 20.0958 994.419 20.0958C996.459 20.0958 999.037 20.7135 1001.08 21.8143V15.5045C998.849 14.6186 996.647 14.2695 994.419 14.2695C988.968 14.2695 985.344 17.1156 985.344 21.8681C985.344 29.2784 995.546 28.0971 995.546 31.2923C995.546 32.5272 994.473 32.93 992.969 32.93C990.741 32.93 987.894 32.0171 985.639 30.782V37.1722C988.136 38.2462 990.66 38.7025 992.969 38.7025C998.554 38.7025 1002.39 35.9372 1002.39 31.1311C1002.37 23.13 992.137 24.5529 992.137 21.5457ZM1010.29 8.89968L1003.74 10.2958L1003.71 31.8022C1003.71 35.7762 1006.69 38.7025 1010.66 38.7025C1012.86 38.7025 1014.48 38.2999 1015.36 37.8166V32.3661C1014.5 32.7152 1010.26 33.9502 1010.26 29.9765V20.4449H1015.36V14.726H1010.26L1010.29 8.89968ZM1023.71 16.7128L1023.28 14.726H1017.48V38.2193H1024.2V22.2976C1025.78 20.2302 1028.46 20.6061 1029.3 20.9014V14.726C1028.44 14.4037 1025.3 13.813 1023.71 16.7128ZM1030.93 14.726H1037.67V38.2193H1030.93V14.726ZM1030.93 12.6854L1037.67 11.2355V5.7851L1030.93 7.20816V12.6852V12.6854ZM1051.69 14.2695C1049.06 14.2695 1047.37 15.5045 1046.43 16.3639L1046.08 14.6992H1040.17V46.0055L1046.88 44.5827L1046.91 36.9842C1047.88 37.6823 1049.3 38.6757 1051.66 38.6757C1056.47 38.6757 1060.84 34.8094 1060.84 26.2982C1060.82 18.5117 1056.39 14.2695 1051.69 14.2695ZM1050.08 32.7688C1048.49 32.7688 1047.55 32.2051 1046.91 31.507L1046.88 21.5457C1047.58 20.7671 1048.55 20.2302 1050.08 20.2302C1052.52 20.2302 1054.21 22.9688 1054.21 26.486C1054.21 30.0839 1052.55 32.7688 1050.08 32.7688ZM1082 26.5666C1082 19.6931 1078.67 14.2695 1072.31 14.2695C1065.92 14.2695 1062.05 19.6933 1062.05 26.513C1062.05 34.5946 1066.62 38.6757 1073.17 38.6757C1076.36 38.6757 1078.78 37.9508 1080.61 36.9306V31.5606C1078.78 32.4736 1076.69 33.0375 1074.03 33.0375C1071.42 33.0375 1069.11 32.1245 1068.82 28.9563H1081.95C1081.95 28.607 1082 27.211 1082 26.5666ZM1068.74 24.016C1068.74 20.982 1070.59 19.7199 1072.28 19.7199C1073.92 19.7199 1075.67 20.982 1075.67 24.016H1068.74Z" fill="#154444" fill-opacity="0.86"/>
</g>
<defs>
<clipPath id="clip0_4886_140">
<rect width="97.2975" height="34" fill="white" transform="translate(391.977 8.98608)"/>
</clipPath>
<clipPath id="clip1_4886_140">
<rect width="125" height="39" fill="white" transform="translate(166.977 6.48608)"/>
</clipPath>
<clipPath id="clip2_4886_140">
<rect width="89.6" height="32" fill="white" transform="translate(795.744 9.98608)"/>
</clipPath>
<clipPath id="clip3_4886_140">
<rect width="96.6583" height="40.4032" fill="white" transform="translate(985.344 5.78442)"/>
</clipPath>
</defs>
</svg>
